<?xml version="1.0" standalone="no"?>
<svg xmlns:xlink="http://www.w3.org/1999/xlink" id="wave" style="transform:rotate(180deg); transition: 0.3s" viewBox="0 0 1440 100" version="1.1" xmlns="http://www.w3.org/2000/svg"><defs><linearGradient id="sw-gradient-0" x1="0" x2="0" y1="1" y2="0"><stop stop-color="rgba(255, 249, 234, 1)" offset="0%"/><stop stop-color="rgba(255, 249, 234, 1)" offset="100%"/></linearGradient></defs><path style="transform:translate(0, 0px); opacity:1" fill="url(#sw-gradient-0)" d="M0,90L26.7,76.7C53.3,63,107,37,160,21.7C213.3,7,267,3,320,10C373.3,17,427,33,480,41.7C533.3,50,587,50,640,41.7C693.3,33,747,17,800,10C853.3,3,907,7,960,11.7C1013.3,17,1067,23,1120,31.7C1173.3,40,1227,50,1280,58.3C1333.3,67,1387,73,1440,63.3C1493.3,53,1547,27,1600,28.3C1653.3,30,1707,60,1760,63.3C1813.3,67,1867,43,1920,35C1973.3,27,2027,33,2080,35C2133.3,37,2187,33,2240,26.7C2293.3,20,2347,10,2400,13.3C2453.3,17,2507,33,2560,48.3C2613.3,63,2667,77,2720,76.7C2773.3,77,2827,63,2880,63.3C2933.3,63,2987,77,3040,68.3C3093.3,60,3147,30,3200,25C3253.3,20,3307,40,3360,55C3413.3,70,3467,80,3520,70C3573.3,60,3627,30,3680,26.7C3733.3,23,3787,47,3813,58.3L3840,70L3840,100L3813.3,100C3786.7,100,3733,100,3680,100C3626.7,100,3573,100,3520,100C3466.7,100,3413,100,3360,100C3306.7,100,3253,100,3200,100C3146.7,100,3093,100,3040,100C2986.7,100,2933,100,2880,100C2826.7,100,2773,100,2720,100C2666.7,100,2613,100,2560,100C2506.7,100,2453,100,2400,100C2346.7,100,2293,100,2240,100C2186.7,100,2133,100,2080,100C2026.7,100,1973,100,1920,100C1866.7,100,1813,100,1760,100C1706.7,100,1653,100,1600,100C1546.7,100,1493,100,1440,100C1386.7,100,1333,100,1280,100C1226.7,100,1173,100,1120,100C1066.7,100,1013,100,960,100C906.7,100,853,100,800,100C746.7,100,693,100,640,100C586.7,100,533,100,480,100C426.7,100,373,100,320,100C266.7,100,213,100,160,100C106.7,100,53,100,27,100L0,100Z"/></svg>